<svg width="25" height="25" viewBox="0 0 25 25" fill="none" xmlns="http://www.w3.org/2000/svg">
<path fill-rule="evenodd" clip-rule="evenodd" d="M6.81768 0.379211H17.9161C21.9605 0.379211 24.2683 2.66313 24.2683 6.71947V17.8298C24.2683 21.8623 21.9724 24.1701 17.928 24.1701H6.81768C2.76134 24.1701 0.477417 21.8623 0.477417 17.8298V6.71947C0.477417 2.66313 2.76134 0.379211 6.81768 0.379211ZM13.3482 13.262H16.7265C17.2737 13.2501 17.7139 12.8099 17.7139 12.2628C17.7139 11.7156 17.2737 11.2754 16.7265 11.2754H13.3482V7.92092C13.3482 7.37373 12.9081 6.9336 12.3609 6.9336C11.8137 6.9336 11.3736 7.37373 11.3736 7.92092V11.2754H8.00719C7.74549 11.2754 7.49569 11.3825 7.30536 11.5609C7.12693 11.7512 7.01987 11.9999 7.01987 12.2628C7.01987 12.8099 7.46 13.2501 8.00719 13.262H11.3736V16.6284C11.3736 17.1756 11.8137 17.6157 12.3609 17.6157C12.9081 17.6157 13.3482 17.1756 13.3482 16.6284V13.262Z" fill="#9D9D9D"/>
</svg>
