<svg width="24" height="25" viewBox="0 0 24 25" fill="none" xmlns="http://www.w3.org/2000/svg">
<path d="M8.86623 22.7108V19.0735C8.86623 18.145 9.62443 17.3923 10.5597 17.3923H13.9787C14.4278 17.3923 14.8586 17.5695 15.1762 17.8848C15.4938 18.2 15.6722 18.6277 15.6722 19.0735V22.7108C15.6693 23.0968 15.8218 23.468 16.0958 23.742C16.3697 24.0159 16.7425 24.17 17.1314 24.17H19.4639C20.5533 24.1728 21.5991 23.7451 22.3704 22.9814C23.1417 22.2177 23.5752 21.1807 23.5752 20.0992V9.73711C23.5752 8.86351 23.1851 8.03486 22.5101 7.47438L14.5751 1.18313C13.1948 0.0800539 11.2172 0.115669 9.87807 1.26771L2.12418 7.47438C1.41727 8.01833 0.994756 8.84945 0.973877 9.73711V20.0886C0.973877 22.3427 2.81455 24.17 5.08514 24.17H7.36444C8.17207 24.17 8.82842 23.5231 8.83427 22.7214L8.86623 22.7108Z" fill="#9D9D9D"/>
</svg>
