<svg width="22" height="25" viewBox="0 0 22 25" fill="none" xmlns="http://www.w3.org/2000/svg">
<path fill-rule="evenodd" clip-rule="evenodd" d="M16.0704 1.29345L16.0716 2.18516C19.3484 2.44198 21.5129 4.67482 21.5164 8.09899L21.5294 18.1218C21.5341 21.8551 19.1886 24.1521 15.4292 24.1581L6.246 24.17C2.51001 24.1747 0.13524 21.823 0.130542 18.079L0.117623 8.17389C0.112925 4.72713 2.20113 2.50023 5.4779 2.19943L5.47672 1.30772C5.47555 0.784584 5.86312 0.391043 6.37989 0.391043C6.89665 0.389854 7.28423 0.782206 7.2854 1.30534L7.28658 2.13761L14.2629 2.12809L14.2617 1.29583C14.2606 0.772694 14.6481 0.380342 15.1649 0.379153C15.6699 0.377964 16.0693 0.770317 16.0704 1.29345ZM1.92748 8.54124L19.7089 8.51746V8.10133C19.6584 5.5451 18.3759 4.20396 16.074 4.00422L16.0751 4.91971C16.0751 5.43096 15.677 5.83639 15.172 5.83639C14.6552 5.83758 14.2664 5.43334 14.2664 4.92209L14.2653 3.95904L7.28893 3.96855L7.29011 4.93041C7.29011 5.44285 6.90371 5.84709 6.38694 5.84709C5.87017 5.84828 5.48142 5.44523 5.48142 4.93279L5.48025 4.0173C3.19004 4.24677 1.92279 5.59265 1.92631 8.17148L1.92748 8.54124ZM14.6775 13.945V13.9581C14.6892 14.505 15.1355 14.9199 15.677 14.9081C16.2055 14.895 16.6271 14.442 16.6154 13.8951C16.5907 13.3719 16.1667 12.9451 15.6394 12.9463C15.0991 12.9582 14.6763 13.3981 14.6775 13.945ZM15.6476 19.2834C15.1074 19.2715 14.6717 18.8209 14.6705 18.274C14.6587 17.7271 15.0921 17.2741 15.6324 17.261H15.6441C16.1961 17.261 16.6436 17.7116 16.6436 18.2704C16.6448 18.8292 16.1985 19.2822 15.6476 19.2834ZM9.83873 13.964C9.86222 14.5109 10.3097 14.9377 10.8499 14.914C11.3785 14.889 11.8001 14.4372 11.7766 13.8903C11.7637 13.3552 11.3291 12.9391 10.8006 12.9403C10.2604 12.9641 9.83755 13.4171 9.83873 13.964ZM10.8546 19.2299C10.3144 19.2537 9.86806 18.8268 9.84339 18.2799C9.84339 17.733 10.265 17.2812 10.8053 17.2562C11.3338 17.255 11.7695 17.6712 11.7813 18.205C11.8059 18.7531 11.3831 19.2049 10.8546 19.2299ZM4.99988 14.0057C5.02337 14.5526 5.47084 14.9806 6.0111 14.9556C6.53961 14.9319 6.96124 14.4789 6.93658 13.932C6.92483 13.3969 6.49028 12.9808 5.96059 12.982C5.42034 13.0058 4.9987 13.4588 4.99988 14.0057ZM6.01581 19.2358C5.47556 19.2608 5.02926 18.8328 5.00459 18.2859C5.00342 17.7389 5.42623 17.286 5.96648 17.2622C6.49499 17.261 6.93072 17.6771 6.94247 18.2121C6.96713 18.7591 6.5455 19.2121 6.01581 19.2358Z" fill="#BFFF00"/>
</svg>
