<svg width="29" height="29" viewBox="0 0 29 29" fill="none" xmlns="http://www.w3.org/2000/svg">
<path d="M10.8662 24.7108V21.0735C10.8662 20.145 11.6244 19.3923 12.5597 19.3923H15.9787C16.4278 19.3923 16.8586 19.5695 17.1762 19.8848C17.4938 20.2 17.6722 20.6277 17.6722 21.0735V24.7108C17.6693 25.0968 17.8218 25.468 18.0958 25.742C18.3697 26.0159 18.7425 26.17 19.1314 26.17H21.4639C22.5533 26.1728 23.5991 25.7451 24.3704 24.9814C25.1417 24.2177 25.5752 23.1807 25.5752 22.0992V11.7371C25.5752 10.8635 25.1851 10.0349 24.5101 9.47438L16.5751 3.18313C15.1948 2.08005 13.2172 2.11567 11.8781 3.26771L4.12418 9.47438C3.41727 10.0183 2.99476 10.8494 2.97388 11.7371V22.0886C2.97388 24.3427 4.81455 26.17 7.08514 26.17H9.36444C10.1721 26.17 10.8284 25.5231 10.8343 24.7214L10.8662 24.7108Z" fill="#BFFF00"/>
</svg>
