<svg width="29" height="29" viewBox="0 0 29 29" fill="none" xmlns="http://www.w3.org/2000/svg">
<path fill-rule="evenodd" clip-rule="evenodd" d="M8.81768 2.37921H19.9161C23.9605 2.37921 26.2683 4.66313 26.2683 8.71947V19.8298C26.2683 23.8623 23.9724 26.1701 19.928 26.1701H8.81768C4.76134 26.1701 2.47742 23.8623 2.47742 19.8298V8.71947C2.47742 4.66313 4.76134 2.37921 8.81768 2.37921ZM15.3482 15.262H18.7265C19.2737 15.2501 19.7139 14.8099 19.7139 14.2628C19.7139 13.7156 19.2737 13.2754 18.7265 13.2754H15.3482V9.92092C15.3482 9.37373 14.9081 8.9336 14.3609 8.9336C13.8137 8.9336 13.3736 9.37373 13.3736 9.92092V13.2754H10.0072C9.74549 13.2754 9.49569 13.3825 9.30536 13.5609C9.12693 13.7512 9.01987 13.9999 9.01987 14.2628C9.01987 14.8099 9.46 15.2501 10.0072 15.262H13.3736V18.6284C13.3736 19.1756 13.8137 19.6157 14.3609 19.6157C14.9081 19.6157 15.3482 19.1756 15.3482 18.6284V15.262Z" fill="#BFFF00"/>
</svg>
