<svg width="17" height="17" viewBox="0 0 17 17" fill="none" xmlns="http://www.w3.org/2000/svg">
<path d="M6.63304 2.76922C6.17046 2.46083 5.93917 2.30664 5.68716 2.33159C5.43516 2.35655 5.2386 2.55311 4.84548 2.94623L2.94627 4.84544C2.55315 5.23856 2.35659 5.43512 2.33164 5.68712C2.30668 5.93913 2.46088 6.17042 2.76926 6.633L3.93706 8.3847C4.33503 8.98164 4.53401 9.28012 4.69285 9.59868C4.81061 9.83487 4.91173 10.079 4.99547 10.3293C5.10841 10.6668 5.17876 11.0186 5.31946 11.7221L5.45475 12.3985C5.45522 12.4009 5.45546 12.4021 5.45564 12.403C5.55652 12.9008 6.1332 13.1338 6.55158 12.8457C6.55232 12.8452 6.55332 12.8445 6.55532 12.8431C6.56475 12.8366 6.56946 12.8334 6.57414 12.8301C9.01771 11.1367 11.1368 9.01767 12.8301 6.5741C12.8334 6.56942 12.8367 6.56471 12.8432 6.55528C12.8446 6.55328 12.8453 6.55228 12.8458 6.55154C13.1339 6.13316 12.9009 5.55648 12.403 5.4556C12.4022 5.45542 12.401 5.45518 12.3986 5.45471L11.7221 5.31942C11.0186 5.17872 10.6669 5.10837 10.3293 4.99542C10.079 4.91169 9.83491 4.81057 9.59873 4.69281C9.28016 4.53397 8.98168 4.33498 8.38474 3.93702L6.63304 2.76922Z" fill="#7CA600" stroke="#BFFF00" stroke-width="0.991667"/>
<path d="M13.4584 13.4583L10.2709 10.2708" stroke="#BFFF00" stroke-width="0.991667" stroke-linecap="round"/>
</svg>
