<svg width="24" height="24" viewBox="0 0 24 24" fill="none" xmlns="http://www.w3.org/2000/svg">
<path fill-rule="evenodd" clip-rule="evenodd" d="M9.625 19.25C14.9407 19.25 19.25 14.9407 19.25 9.625C19.25 4.30926 14.9407 0 9.625 0C4.30926 0 0 4.30926 0 9.625C0 14.9407 4.30926 19.25 9.625 19.25ZM9.625 2.75C8.72216 2.75 7.82817 2.92783 6.99405 3.27333C6.15994 3.61883 5.40204 4.12524 4.76364 4.76364C4.12524 5.40204 3.61883 6.15994 3.27333 6.99405C2.92783 7.82817 2.75 8.72216 2.75 9.625C2.75 10.3844 3.36561 11 4.125 11C4.88439 11 5.5 10.3844 5.5 9.625C5.5 9.0833 5.6067 8.5469 5.814 8.04643C6.0213 7.54596 6.32514 7.09123 6.70818 6.70818C7.09123 6.32514 7.54596 6.0213 8.04643 5.814C8.5469 5.6067 9.0833 5.5 9.625 5.5C10.3844 5.5 11 4.88439 11 4.125C11 3.36561 10.3844 2.75 9.625 2.75Z" fill="#BFFF00"/>
<path d="M22 22L19.25 19.25" stroke="#BFFF00" stroke-width="2.75" stroke-linecap="round"/>
</svg>
