<svg width="24" height="24" viewBox="0 0 24 24" fill="none" xmlns="http://www.w3.org/2000/svg">
<path d="M16.0652 8.36543C16.0652 7.07834 17.7771 6.73718 18.2312 7.94148C19.3299 10.8546 20.1303 13.4606 20.1303 14.8696C20.1303 19.3599 16.4903 23 12 23C7.50971 23 3.86963 19.3599 3.86963 14.8696C3.86963 13.3559 4.7936 10.4604 6.01857 7.28685C7.60541 3.17582 8.39882 1.12031 9.37822 1.0096C9.69162 0.974168 10.0335 1.03786 10.3131 1.18376C11.1869 1.63973 11.1869 3.88163 11.1869 8.36543C11.1869 9.71251 12.279 10.8045 13.6261 10.8045C14.9731 10.8045 16.0652 9.71251 16.0652 8.36543Z" fill="#9D9D9D"/>
</svg>
