<svg width="12" height="16" viewBox="0 0 12 16" fill="none" xmlns="http://www.w3.org/2000/svg">
<path d="M2.06897 0H4.55172V2.60969L8.27586 0.762155V3.22552L4.55172 5.07307V6.44025L8.27586 4.59271V7.05607L4.55172 8.90361V13.8451C5.00119 13.777 5.44452 13.6531 5.8723 13.474C6.56218 13.1851 7.20323 12.7558 7.75241 12.2005C8.30193 11.6451 8.74635 10.9767 9.05222 10.2301C9.3581 9.48359 9.51724 8.67883 9.51724 7.86304H12C12 8.91499 11.7952 9.95968 11.394 10.9386C10.993 11.9176 10.401 12.8171 9.64411 13.5822C8.88695 14.3477 7.97702 14.9659 6.95992 15.3918C6.19448 15.7123 5.38254 15.9178 4.55172 16H2.06897V10.1353L0 11.1617V8.69831L2.06897 7.67196V6.30471L0 7.33113V4.86777L2.06897 3.84135V0Z" fill="#BFFF00"/>
</svg>
