<svg width="32" height="32" viewBox="0 0 32 32" fill="none" xmlns="http://www.w3.org/2000/svg">
<path d="M22.6667 5.33337H22.9333C25.3218 5.33337 26.516 5.33337 27.258 6.07537C28 6.81737 28 8.01159 28 10.4V10.6667M22.6667 26.6667H22.9333C25.3218 26.6667 26.516 26.6667 27.258 25.9247C28 25.1827 28 23.9885 28 21.6V21.3334M9.33333 5.33337H9.06667C6.67822 5.33337 5.48399 5.33337 4.742 6.07537C4 6.81737 4 8.01159 4 10.4V10.6667M9.33333 26.6667H9.06667C6.67822 26.6667 5.48399 26.6667 4.742 25.9247C4 25.1827 4 23.9885 4 21.6V21.3334" stroke="#9D9D9D" stroke-width="2.66667" stroke-linecap="round"/>
<path fill-rule="evenodd" clip-rule="evenodd" d="M25.0866 16C25.0866 15.285 24.919 14.995 24.5839 14.415C23.4445 12.4433 20.8748 9.33337 16 9.33337C11.1253 9.33337 8.55552 12.4433 7.41616 14.415C7.08102 14.995 6.91345 15.285 6.91345 16C6.91345 16.7151 7.08102 17.0051 7.41616 17.5851C8.55551 19.5568 11.1253 22.6667 16 22.6667C20.8748 22.6667 23.4445 19.5568 24.5839 17.5851C24.919 17.0051 25.0866 16.7151 25.0866 16ZM16 20C18.2091 20 20 18.2092 20 16C20 13.7909 18.2091 12 16 12C13.7909 12 12 13.7909 12 16C12 18.2092 13.7909 20 16 20Z" fill="#9D9D9D"/>
</svg>
